<svg width="68" height="20" viewBox="0 0 68 20" fill="none" xmlns="http://www.w3.org/2000/svg">
<path fill-rule="evenodd" clip-rule="evenodd" d="M4.13076 3.09064C5.28975 1.04012 7.01337 0 9.30163 0C10.4309 0 11.4116 0.267459 12.214 0.772659C13.0461 1.27786 13.7296 2.0208 14.2645 2.97177C12.8975 2.3477 11.263 2.05052 9.30163 2.05052C7.36998 2.05052 5.64636 2.40713 4.13076 3.09064ZM4.33878 16.7311C2.94205 16.107 1.87221 15.2155 1.12927 14.0565C0.38633 12.8678 0 11.4413 0 9.7474C0 8.17236 0.356612 6.83507 1.06984 5.70579C1.78306 4.57652 2.82318 3.68499 4.13076 3.09064C3.68499 3.95245 3.32838 4.93314 3.12036 6.06241C2.91233 7.19168 2.79346 8.4101 2.79346 9.7474C2.79346 11.1441 2.91233 12.422 3.17979 13.6107C3.44725 14.7994 3.83358 15.8395 4.33878 16.7311ZM14.2645 16.7311C13.7296 17.7117 13.0758 18.4547 12.214 18.9896C11.3819 19.5245 10.4012 19.7623 9.27192 19.7623C8.20208 19.7623 7.2214 19.4948 6.3893 18.9896C5.55721 18.4547 4.8737 17.7117 4.30906 16.7311C5.70579 17.3551 7.34027 17.6523 9.27192 17.6523C11.263 17.6523 12.9272 17.3254 14.2645 16.7311ZM14.2645 16.7311C15.6018 16.1367 16.6419 15.2452 17.3551 14.0862C18.0683 12.8975 18.425 11.471 18.425 9.7474C18.425 8.11293 18.0683 6.74591 17.3551 5.61664C16.6419 4.45765 15.6315 3.59584 14.2645 3.00149C14.74 3.8633 15.0669 4.84398 15.3046 6.00297C15.5423 7.16196 15.6612 8.4101 15.6612 9.7474C15.6612 11.1738 15.5423 12.4814 15.3046 13.6701C15.0966 14.8291 14.74 15.8692 14.2645 16.7311ZM27.8752 0H20.9212V19.7623H23.3581V12.5111H28.0238C30.2823 12.5111 31.7979 11.7088 32.5706 10.0743C33.4918 9.80684 34.2348 9.39079 34.7994 8.76672C35.364 8.14264 35.6315 7.28083 35.6315 6.15156C35.6315 4.10104 34.5617 2.79346 32.4517 2.25854C31.5899 0.742942 30.0446 0 27.8752 0ZM32.4814 2.25854C33.0461 3.23923 33.3135 4.5468 33.3135 6.15156C33.3135 7.78603 33.0758 9.09361 32.6003 10.0743C31.8871 10.2823 31.0253 10.3715 30.0149 10.3715H23.3878V2.0208H30.0149C30.9361 2.0208 31.7385 2.08024 32.4814 2.25854ZM40.4458 8.52897C39.584 8.43982 38.9896 8.17236 38.633 7.7266C38.3061 7.28083 38.1278 6.56761 38.1278 5.64636V0H50.6686V2.05052H40.4458V8.52897ZM40.4458 10.5795V8.52897C40.5943 8.55869 40.8915 8.55869 41.3076 8.55869H50.1634V10.5201H41.3076C41.0401 10.5201 40.7727 10.5498 40.4458 10.5795ZM40.4458 10.5795V17.7415H50.9361V19.7623H38.1278V13.5215C38.1278 12.7192 38.3061 12.0654 38.6627 11.5602C39.0193 11.0253 39.6137 10.7281 40.4458 10.5795ZM57.7712 0.861813C57.0579 1.3373 56.5825 1.96137 56.315 2.73403C55.6018 3.0312 55.0371 3.44725 54.6508 3.98217C54.2645 4.51709 54.0565 5.14116 54.0565 5.85438C54.0565 6.74591 54.4131 7.51857 55.0966 8.14264C55.7801 8.76672 56.7905 9.33135 58.0981 9.83655L61.7533 11.263C62.5854 11.5899 63.2689 11.9465 63.8039 12.3328C64.3388 12.7192 64.7251 13.1946 64.9926 13.7296C65.26 14.2942 65.4086 14.948 65.4086 15.7801C65.4086 16.315 65.3195 16.7905 65.1709 17.2363C64.101 17.7415 62.734 18.0089 61.0698 18.0089C59.2868 18.0089 57.8009 17.8009 56.6419 17.3848C56.2853 16.6419 56.1367 15.6612 56.1367 14.5022C56.1367 13.9673 56.1664 13.581 56.1961 13.3135H53.581C53.6107 15.3046 54.6508 16.6716 56.6716 17.4146C57.0579 18.2467 57.5929 18.9004 58.3358 19.3462C59.049 19.792 59.9406 20 60.951 20C62.0505 20 62.9718 19.7623 63.7147 19.2571C64.4576 18.7519 64.9628 18.0981 65.2303 17.2957C65.9732 16.9391 66.5379 16.4933 66.9242 15.899C67.3105 15.3343 67.5186 14.6508 67.5186 13.9079C67.5186 12.9272 67.162 12.0654 66.4487 11.3224C65.7355 10.6092 64.7548 9.95542 63.4472 9.45022L59.792 8.02377C58.9004 7.66716 58.1872 7.34027 57.6523 6.98365C57.1471 6.65676 56.7608 6.27043 56.4933 5.82467C56.2556 5.34918 56.1367 4.78455 56.1367 4.10104C56.1367 3.65528 56.1961 3.23923 56.3447 2.82318C57.4146 2.37741 58.7518 2.13967 60.3863 2.13967C61.9316 2.13967 63.2987 2.3477 64.5171 2.79346C64.7548 3.50669 64.8737 4.33878 64.8737 5.31947C64.8737 5.52749 64.844 5.85438 64.8143 6.32987H67.4294C67.3997 5.52749 67.1322 4.81426 66.5973 4.21991C66.0921 3.62556 65.3789 3.15007 64.4576 2.79346C63.8336 1.09955 62.4963 0.237742 60.416 0.237742C59.3759 0.148589 58.4844 0.38633 57.7712 0.861813Z" fill="white" style="fill:white;fill-opacity:1;"/>
</svg>
